<?xml version="1.0" encoding="UTF-8"?>
<svg version="1.1" xmlns="http://www.w3.org/2000/svg" width="1920" height="597">
<path d="M0 0 C0.70797729 -0.00175232 1.41595459 -0.00350464 2.14538574 -0.00531006 C4.49554883 -0.00972247 6.84563686 -0.00678709 9.19580078 -0.00341797 C10.84514378 -0.00409252 12.49448668 -0.00506381 14.14382935 -0.00631714 C17.61575255 -0.00779438 21.08765009 -0.00564365 24.55957031 -0.00097656 C28.94686572 0.00464149 33.33409949 0.00139374 37.72139263 -0.00440979 C116.15864495 -0.09301858 116.15864495 -0.09301858 136.38720703 18.35205078 C144.31389547 27.00107533 147.76291154 38.46129473 147.35986328 50.08251953 C146.08110954 61.41692767 143.15379987 71.07002309 136.01611328 80.12939453 C135.26587891 81.09232422 135.26587891 81.09232422 134.50048828 82.07470703 C126.56477799 91.01240094 114.258534 95.99963638 103.01611328 99.12939453 C103.76634766 99.38591797 104.51658203 99.64244141 105.28955078 99.90673828 C116.04255261 103.92895685 125.14361918 110.47336419 130.01611328 121.12939453 C134.51368026 133.50281247 136.8370237 146.07106728 138.99829102 159.01855469 C141.21271198 176.4486431 141.21271198 176.4486431 151.01611328 190.12939453 C156.05708717 192.20508966 160.61876564 192.28821477 165.97705078 192.10205078 C168.01611328 192.12939453 168.01611328 192.12939453 169.01611328 193.12939453 C169.08816839 194.81548419 169.09997396 196.50440112 169.07861328 198.19189453 C169.06958984 199.11099609 169.06056641 200.03009766 169.05126953 200.97705078 C169.03386719 202.04246094 169.03386719 202.04246094 169.01611328 203.12939453 C162.18085253 205.20394163 155.82154148 205.46321846 148.70361328 205.44189453 C147.10743164 205.46606445 147.10743164 205.46606445 145.47900391 205.49072266 C135.65529001 205.49671638 125.96834902 204.47935969 118.71166992 197.27685547 C110.50163992 186.87866628 110.11232987 172.43076462 108.45361328 159.81689453 C106.16649321 131.3843102 106.16649321 131.3843102 91.80126953 108.31298828 C80.171014 100.60189982 56.17070319 103.46788086 46.01611328 103.12939453 C46.01611328 132.49939453 46.01611328 161.86939453 46.01611328 192.12939453 C55.58611328 192.12939453 65.15611328 192.12939453 75.01611328 192.12939453 C75.01611328 195.75939453 75.01611328 199.38939453 75.01611328 203.12939453 C46.96611328 203.12939453 18.91611328 203.12939453 -9.98388672 203.12939453 C-9.98388672 199.49939453 -9.98388672 195.86939453 -9.98388672 192.12939453 C-0.74388672 192.12939453 8.49611328 192.12939453 18.01611328 192.12939453 C18.01611328 132.72939453 18.01611328 73.32939453 18.01611328 12.12939453 C9.10611328 12.12939453 0.19611328 12.12939453 -8.98388672 12.12939453 C-9.98388672 11.12939453 -9.98388672 11.12939453 -10.08154297 8.84423828 C-10.06994141 7.92771484 -10.05833984 7.01119141 -10.04638672 6.06689453 C-10.03736328 5.14779297 -10.02833984 4.22869141 -10.01904297 3.28173828 C-10.00744141 2.57146484 -9.99583984 1.86119141 -9.98388672 1.12939453 C-6.47105295 -0.04155006 -3.70817765 0.00230461 0 0 Z M46.01611328 12.12939453 C46.01611328 38.52939453 46.01611328 64.92939453 46.01611328 92.12939453 C77.55576592 93.71648934 77.55576592 93.71648934 106.23095703 81.96142578 C115.8881804 72.05062105 117.39194209 58.85335827 117.22314453 45.64111328 C116.69887246 36.74827189 115.67807968 28.22159033 109.10205078 21.74267578 C91.45233885 8.09224315 66.46113447 12.12939453 46.01611328 12.12939453 Z " fill="#F9FAFA" transform="translate(964.98388671875,131.87060546875)"/>
<path d="M0 0 C0.75037033 0.00045319 1.50074066 0.00090637 2.27384949 0.00137329 C3.45500336 -0.00366463 3.45500336 -0.00366463 4.66001892 -0.00880432 C7.28920542 -0.01837086 9.91832824 -0.02026244 12.54753113 -0.02133179 C14.3895368 -0.02454823 16.23154222 -0.02791259 18.07354736 -0.03141785 C21.96014493 -0.03742862 25.84672025 -0.03925653 29.73332214 -0.03866577 C33.67152088 -0.03858546 37.60960097 -0.04536674 41.54777527 -0.05917358 C102.62992881 -0.27017421 102.62992881 -0.27017421 120.77018738 6.14663696 C122.39633972 6.72091431 122.39633972 6.72091431 124.05534363 7.30679321 C134.82480046 11.45710433 144.74902037 18.25495186 150.12565613 28.80679321 C151.11665135 31.23598366 152.0033994 33.63833054 152.77018738 36.14663696 C152.96096863 36.74991821 153.15174988 37.35319946 153.34831238 37.97476196 C155.7888865 50.53919911 153.5883556 63.75512762 146.58268738 74.45913696 C137.59508367 86.17715193 126.06411895 91.51447511 112.77018738 97.14663696 C113.7627655 97.35417603 114.75534363 97.56171509 115.77799988 97.77554321 C131.36415662 101.22840509 146.16554479 107.02653547 155.14518738 121.02163696 C162.24643809 134.11949938 162.88450908 149.33466592 159.20768738 163.70913696 C154.52000354 177.65745495 145.96201867 186.81731287 133.02018738 193.39663696 C113.87026022 202.70178904 95.40366476 203.44054734 74.53190613 203.34194946 C72.19636151 203.3382131 69.86081531 203.33536908 67.52526855 203.33337402 C61.41797964 203.32578662 55.31078787 203.3061808 49.20353699 203.28396606 C42.95558485 203.26340153 36.70761682 203.25434975 30.4596405 203.24429321 C18.22978043 203.22292977 5.99999202 203.18885376 -6.22981262 203.14663696 C-6.22981262 199.51663696 -6.22981262 195.88663696 -6.22981262 192.14663696 C2.68018738 191.81663696 11.59018738 191.48663696 20.77018738 191.14663696 C21.10018738 132.07663696 21.43018738 73.00663696 21.77018738 12.14663696 C12.53018738 12.14663696 3.29018738 12.14663696 -6.22981262 12.14663696 C-6.22981262 0.03913094 -6.22981262 0.03913094 0 0 Z M48.77018738 12.14663696 C48.77018738 38.54663696 48.77018738 64.94663696 48.77018738 92.14663696 C82.93466426 94.11409983 82.93466426 94.11409983 113.92253113 81.36538696 C123.31477845 71.67528825 124.17063968 58.29466972 123.98893738 45.49429321 C123.64302718 35.60342336 121.22175707 27.59820665 114.14518738 20.52163696 C96.88346256 7.10064592 66.89300589 12.14663696 48.77018738 12.14663696 Z M48.77018738 104.14663696 C48.74706483 115.47275326 48.72927274 126.79886399 48.71837521 138.12499905 C48.71314618 143.3836036 48.70604819 148.64219206 48.69474792 153.90078735 C48.68391972 158.97116823 48.67791069 164.04153358 48.67531013 169.11192513 C48.67345576 171.05090644 48.66983492 172.98988687 48.66445732 174.92886162 C48.65724778 177.63485456 48.6561964 180.34078252 48.65666199 183.04678345 C48.65306671 183.85670242 48.64947144 184.6666214 48.64576721 185.50108337 C48.31028036 189.12169559 48.31028036 189.12169559 49.77018738 192.14663696 C52.2379371 192.26049483 54.67646205 192.31083701 57.14518738 192.31460571 C57.9025116 192.31793411 58.65983582 192.32126251 59.44010925 192.32469177 C61.0576161 192.32977339 62.6751335 192.33209972 64.29264832 192.3319397 C66.70462498 192.33407882 69.11610729 192.35208458 71.52799988 192.37124634 C79.43369361 192.40045225 87.2210859 192.15819794 95.07878113 191.24429321 C95.76532776 191.16446701 96.45187439 191.08464081 97.15922546 191.00239563 C107.24086656 189.70154628 116.58085618 186.31150823 123.26628113 178.36929321 C132.15425409 165.47250158 131.86678422 147.3626591 129.49674988 132.46304321 C127.91357199 125.23660222 125.09527609 119.38959522 119.77018738 114.14663696 C106.80660933 105.94263346 93.42631567 103.95257741 78.36003113 104.04898071 C77.08066429 104.05110313 77.08066429 104.05110313 75.77545166 104.05326843 C73.08615922 104.05880758 70.3969541 104.07134817 67.70768738 104.08413696 C65.86979797 104.08915985 64.03190723 104.09372136 62.1940155 104.09780884 C57.71937316 104.10875697 53.244795 104.12597857 48.77018738 104.14663696 Z " fill="#FBFBFB" transform="translate(418.2298126220703,131.85336303710938)"/>
<path d="M0 0 C12.57981719 -0.06994868 25.15958703 -0.12303683 37.73956013 -0.15543652 C43.58287305 -0.17099784 49.42605153 -0.19205895 55.26928711 -0.22631836 C60.92330914 -0.25925556 66.57720303 -0.27692439 72.23131371 -0.28463173 C74.37314047 -0.29011427 76.51496136 -0.30081727 78.65673256 -0.31719017 C101.80159143 -0.48685606 128.25064093 0.69983036 146.37109375 17.22265625 C154.29778219 25.8716808 157.74679826 37.3319002 157.34375 48.953125 C156.06499626 60.28753314 153.13768659 69.94062856 146 79 C145.24976563 79.96292969 145.24976563 79.96292969 144.484375 80.9453125 C136.54866471 89.88300641 124.24242072 94.87024185 113 98 C113.75023437 98.25652344 114.50046875 98.51304687 115.2734375 98.77734375 C126.02649376 102.79958268 135.12742525 109.343984 140 120 C144.48218806 132.32486219 146.79722758 144.83303932 148.90673828 157.73828125 C150.97154209 173.79476285 150.97154209 173.79476285 158.50219727 187.57397461 C162.98046041 190.76993114 167.35451021 191.11392235 172.6875 191 C174.45793582 190.96248083 176.22978561 190.95318441 178 191 C179 192 179 192 179.09765625 194.28515625 C179.08025391 195.65994141 179.08025391 195.65994141 179.0625 197.0625 C179.05347656 197.98160156 179.04445313 198.90070313 179.03515625 199.84765625 C179.01775391 200.91306641 179.01775391 200.91306641 179 202 C172.14631038 204.08265871 165.7624586 204.33379313 158.625 204.3125 C157.5525 204.32861328 156.48 204.34472656 155.375 204.36132812 C145.99850831 204.36703159 137.47253593 203.04919575 130 197 C123.19697836 190.19697836 121.40513937 180.46399902 120.21875 171.26953125 C120.00841125 169.77929695 120.00841125 169.77929695 119.79382324 168.25895691 C119.35056444 165.11166204 118.92367806 161.96248587 118.5 158.8125 C116.17275484 130.31552968 116.17275484 130.31552968 101.78515625 107.18359375 C90.15490072 99.47250529 66.15458991 102.33848633 56 102 C56 131.37 56 160.74 56 191 C65.57 191 75.14 191 85 191 C85 194.63 85 198.26 85 202 C56.95 202 28.9 202 0 202 C0 198.37 0 194.74 0 191 C9.24 191 18.48 191 28 191 C28 131.6 28 72.2 28 11 C19.09 11 10.18 11 1 11 C0 10 0 10 -0.09765625 7.71484375 C-0.08605469 6.79832031 -0.07445312 5.88179687 -0.0625 4.9375 C-0.05347656 4.01839844 -0.04445313 3.09929687 -0.03515625 2.15234375 C-0.02355469 1.44207031 -0.01195312 0.73179687 0 0 Z M56 11 C56 37.4 56 63.8 56 91 C88.1667919 92.5807086 88.1667919 92.5807086 116.9921875 80.16796875 C126.25702253 70.16410992 127.4701916 56.55553442 127.25390625 43.53515625 C126.69167933 35.7072276 125.58158987 26.86782525 120 21 C101.65087682 7.16969074 77.65351555 11 56 11 Z " fill="#FAFBFB" transform="translate(1522,133)"/>
<path d="M0 0 C1.9413961 -0.00422974 1.9413961 -0.00422974 3.92201233 -0.00854492 C5.36976637 -0.00660031 6.81752028 -0.00455212 8.26527405 -0.00241089 C9.77939903 -0.00376488 11.29352368 -0.0055448 12.80764771 -0.00772095 C16.93156636 -0.01229592 21.05546011 -0.01050536 25.17937922 -0.00734186 C29.48662177 -0.00481812 33.79386211 -0.00715588 38.10110474 -0.00872803 C45.33682134 -0.01054988 52.57252774 -0.00814321 59.8082428 -0.00338745 C68.18280509 0.00205315 76.55734303 0.00029405 84.93190473 -0.00521386 C92.11066743 -0.00974699 99.28942278 -0.01039449 106.46818644 -0.00777519 C110.76069543 -0.00621326 115.05319296 -0.00601632 119.34570122 -0.00931168 C123.38148708 -0.01219322 127.41724146 -0.01020945 131.45302391 -0.00441742 C132.93734942 -0.00309126 134.42167757 -0.00348151 135.90600204 -0.00568008 C137.92618467 -0.00839723 139.94637306 -0.00439181 141.96655273 0 C143.09905929 0.00037703 144.23156584 0.00075405 145.39839077 0.0011425 C148.04676819 0.12698364 148.04676819 0.12698364 150.04676819 1.12698364 C152.43453625 41.37929179 152.43453625 41.37929179 152.04676819 57.12698364 C149.07676819 57.12698364 146.10676819 57.12698364 143.04676819 57.12698364 C141.45954654 53.56965793 140.54303322 50.0604197 139.754776 46.25125122 C137.71144466 36.49532434 135.31640848 26.19362178 127.29676819 19.56448364 C116.75425687 12.72392286 103.8996596 12.97817228 91.79676819 12.81057739 C90.68430725 12.79192627 89.57184631 12.77327515 88.42567444 12.75405884 C84.29944743 12.68614146 80.17309929 12.62575105 76.04676819 12.56448364 C62.18676819 12.34792114 62.18676819 12.34792114 48.04676819 12.12698364 C48.04676819 38.52698364 48.04676819 64.92698364 48.04676819 92.12698364 C70.1153837 93.73411889 70.1153837 93.73411889 93.42176819 86.06448364 C98.18614452 77.4519572 98.95655672 67.74649656 100.04676819 58.12698364 C103.34676819 58.12698364 106.64676819 58.12698364 110.04676819 58.12698364 C110.20034555 68.80110828 110.34852731 79.47529267 110.48973179 90.14958858 C110.55546308 95.10555574 110.62308553 100.06148235 110.69496155 105.0173645 C110.7641973 109.79591836 110.82855483 114.57451484 110.88946342 119.35318184 C110.9136252 121.18054166 110.93957465 123.00787872 110.96730232 124.83518791 C111.00570128 127.3854605 111.0378658 129.9357385 111.0684967 132.4861145 C111.08144272 133.24927979 111.09438873 134.01244507 111.10772705 134.79873657 C111.12581217 136.57484309 111.09195966 138.35136005 111.04676819 140.12698364 C110.04676819 141.12698364 110.04676819 141.12698364 107.76161194 141.22463989 C106.38682678 141.20723755 106.38682678 141.20723755 104.98426819 141.18948364 C104.06516663 141.18046021 103.14606506 141.17143677 102.19911194 141.16213989 C101.4888385 141.15053833 100.77856506 141.13893677 100.04676819 141.12698364 C99.94187073 140.19015747 99.94187073 140.19015747 99.83485413 139.23440552 C99.50438219 136.36323132 99.15075235 133.49535012 98.79676819 130.62698364 C98.63241272 129.15358521 98.63241272 129.15358521 98.46473694 127.65042114 C97.53545816 120.31400975 95.978109 114.40318808 90.92176819 108.75198364 C79.5330213 102.31486584 58.01013051 104.45909572 48.04676819 104.12698364 C48.37676819 132.83698364 48.70676819 161.54698364 49.04676819 191.12698364 C55.91489319 191.16823364 62.78301819 191.20948364 69.85926819 191.25198364 C71.98340149 191.27019165 74.10753479 191.28839966 76.29603577 191.30715942 C85.44652036 191.35284528 94.49813772 191.18090592 103.60536194 190.23245239 C104.75183952 190.11312851 104.75183952 190.11312851 105.92147827 189.99139404 C114.56546699 188.98020748 123.78472551 186.54636408 130.04676819 180.12698364 C137.8025466 169.78594577 140.52712047 157.75830806 143.11708069 145.36135864 C143.92208727 141.55618776 144.93292769 137.85292796 146.04676819 134.12698364 C149.34676819 134.12698364 152.64676819 134.12698364 156.04676819 134.12698364 C155.14357951 169.6214275 155.14357951 169.6214275 154.54676819 186.06448364 C154.51139954 187.10910767 154.47603088 188.15373169 154.43959045 189.23001099 C154.40277161 190.1950354 154.36595276 191.16005981 154.32801819 192.15432739 C154.29772522 192.9766687 154.26743225 193.79901001 154.23622131 194.64627075 C154.0188493 197.49255555 153.51605712 200.31125005 153.04676819 203.12698364 C100.24676819 203.12698364 47.44676819 203.12698364 -6.95323181 203.12698364 C-6.95323181 199.49698364 -6.95323181 195.86698364 -6.95323181 192.12698364 C1.95676819 192.12698364 10.86676819 192.12698364 20.04676819 192.12698364 C20.04676819 133.05698364 20.04676819 73.98698364 20.04676819 13.12698364 C11.13676819 12.79698364 2.22676819 12.46698364 -6.95323181 12.12698364 C-6.95323181 0.00231559 -6.95323181 0.00231559 0 0 Z " fill="#F7F8F9" transform="translate(771.9532318115234,131.87301635742188)"/>
<path d="M0 0 C1.30694321 0.00703949 2.61388641 0.01407898 3.96043396 0.02133179 C5.41717613 0.03431519 6.87391744 0.04739524 8.33065796 0.06056213 C9.85802431 0.07070169 11.38539368 0.08039571 12.9127655 0.0896759 C17.06751462 0.11618932 21.22219392 0.14896216 25.37688875 0.1828258 C29.71573227 0.2171368 34.05461325 0.24573704 38.39349365 0.27493286 C46.61350575 0.33111736 54.83347094 0.39246698 63.05343187 0.4556542 C72.40998367 0.52732831 81.76657307 0.59327189 91.12317014 0.65872467 C110.37385958 0.79351908 129.62448973 0.93554067 148.87509155 1.08229065 C149.16105203 6.13518009 149.44343782 11.188253 149.72271729 16.24151611 C149.81791998 17.95541588 149.9140471 19.66926458 150.01116943 21.38305664 C150.68530858 33.29306559 151.16890525 45.15018986 150.87509155 57.08229065 C147.90509155 57.08229065 144.93509155 57.08229065 141.87509155 57.08229065 C140.2878699 53.52496494 139.37135658 50.01572671 138.58309937 46.20655823 C136.53976802 36.45063135 134.14473184 26.14892879 126.12509155 19.51979065 C115.58258024 12.67922987 102.72798297 12.93347929 90.62509155 12.7658844 C89.51263062 12.74723328 88.40016968 12.72858215 87.2539978 12.70936584 C83.1277708 12.64144846 79.00142266 12.58105805 74.87509155 12.51979065 C61.01509155 12.30322815 61.01509155 12.30322815 46.87509155 12.08229065 C46.87509155 38.48229065 46.87509155 64.88229065 46.87509155 92.08229065 C68.94370706 93.68942589 68.94370706 93.68942589 92.25009155 86.01979065 C97.01446789 77.4072642 97.78488009 67.70180357 98.87509155 58.08229065 C102.17509155 58.08229065 105.47509155 58.08229065 108.87509155 58.08229065 C108.87509155 85.47229065 108.87509155 112.86229065 108.87509155 141.08229065 C105.57509155 141.08229065 102.27509155 141.08229065 98.87509155 141.08229065 C98.7049353 139.58697815 98.53477905 138.09166565 98.35946655 136.55104065 C98.11544938 134.56136218 97.87061426 132.5717839 97.62509155 130.58229065 C97.46073608 129.10889221 97.46073608 129.10889221 97.2930603 127.60572815 C96.36378153 120.26931675 94.80643237 114.35849509 89.75009155 108.70729065 C78.36134467 102.27017284 56.83845387 104.41440273 46.87509155 104.08229065 C46.87509155 133.12229065 46.87509155 162.16229065 46.87509155 192.08229065 C54.09384155 191.95854065 61.31259155 191.83479065 68.75009155 191.70729065 C72.1065686 191.65629211 72.1065686 191.65629211 75.53085327 191.60426331 C84.72109027 191.43980144 93.85416494 191.15727406 102.9961853 190.1565094 C104.06671646 190.04002548 104.06671646 190.04002548 105.15887451 189.92118835 C114.77663087 188.74967867 123.92695485 185.69017891 130.4571228 178.2893219 C138.97076973 166.80128693 141.02523991 151.63840308 143.47372437 137.90724182 C143.87509155 136.08229065 143.87509155 136.08229065 144.87509155 134.08229065 C148.17509155 134.08229065 151.47509155 134.08229065 154.87509155 134.08229065 C153.97229068 168.47000504 153.97229068 168.47000504 153.37509155 184.89479065 C153.3397229 185.93490295 153.30435425 186.97501526 153.26791382 188.04664612 C153.23109497 189.01360413 153.19427612 189.98056213 153.15634155 190.9768219 C153.12604858 191.80029114 153.09575562 192.62376038 153.06454468 193.47218323 C152.83087054 196.69152634 152.33157318 199.88691927 151.87509155 203.08229065 C99.07509155 203.08229065 46.27509155 203.08229065 -8.12490845 203.08229065 C-8.12490845 199.45229065 -8.12490845 195.82229065 -8.12490845 192.08229065 C0.78509155 192.08229065 9.69509155 192.08229065 18.87509155 192.08229065 C18.87509155 133.01229065 18.87509155 73.94229065 18.87509155 13.08229065 C9.96509155 12.75229065 1.05509155 12.42229065 -8.12490845 12.08229065 C-8.12490845 8.45229065 -8.12490845 4.82229065 -8.12490845 1.08229065 C-5.34503369 -0.30764673 -3.1114395 -0.02261951 0 0 Z " fill="#FBFCFC" transform="translate(1340.1249084472656,131.91770935058594)"/>
<path d="M0 0 C0.82886719 0.66644531 1.65773438 1.33289063 2.51171875 2.01953125 C18.09789545 15.26658802 27.12737944 33.42453019 32 53 C32.16371094 53.63969727 32.32742188 54.27939453 32.49609375 54.93847656 C37.49435506 75.49950606 37.11825144 100.51188129 32 121 C31.83371094 121.70044434 31.66742188 122.40088867 31.49609375 123.12255859 C27.72504286 138.64322637 21.10884368 152.57615395 11 165 C10.32453125 165.85078125 9.6490625 166.7015625 8.953125 167.578125 C-4.49816136 183.58221024 -24.49046012 192.6044185 -45 195 C-69.14330349 196.28453484 -92.86014543 192.51036748 -111.7019043 176.09326172 C-133.93762292 155.90192473 -143.11041403 128.37497954 -144.75 99 C-146.12007891 66.34541478 -139.1163918 34.05982335 -117 9 C-87.58741391 -22.27302075 -33.69507437 -27.38083556 0 0 Z M-96 11 C-117.92601457 39.06871125 -117.03505503 85.97424505 -112.98657227 119.6940918 C-110.71462573 136.05999945 -107.21438623 152.6346463 -97 166 C-96.55011719 166.62519531 -96.10023438 167.25039063 -95.63671875 167.89453125 C-89.10968655 176.33370809 -78.47247698 181.5588961 -68 183 C-63.81079323 183.31274595 -59.63754583 183.40842109 -55.4375 183.4375 C-54.397146 183.44765137 -53.35679199 183.45780273 -52.28491211 183.46826172 C-37.88583163 183.30730215 -25.43319684 179.20134802 -15 169 C8.65093212 139.83405231 7.17033373 94.19590438 3.6875 58.80859375 C1.4164613 38.33882976 -3.54905308 17.48305662 -19.875 3.5625 C-42.1117674 -12.98815336 -77.48826613 -9.00763156 -96 11 Z " fill="#FBFBFB" transform="translate(349,145)"/>
<path d="M0 0 C8.25 0 16.5 0 25 0 C23.35 2.31 21.7 4.62 20 7 C18.83776505 10.69170136 18.87128607 14.2718554 18.8671875 18.12890625 C18.86509277 19.3202417 18.86299805 20.51157715 18.86083984 21.73901367 C18.8655127 23.00076416 18.87018555 24.26251465 18.875 25.5625 C18.88007568 27.496698 18.88007568 27.496698 18.88525391 29.4699707 C18.92664319 37.2140978 19.03982481 44.95017661 19.375 52.6875 C19.42116455 53.92318726 19.42116455 53.92318726 19.46826172 55.18383789 C19.55425125 59.55828565 19.55425125 59.55828565 22 63 C25.08347826 63.16681109 25.08347826 63.16681109 28 63 C29.77570898 57.6587976 30.28388471 53.04152131 30.23046875 47.43359375 C30.23001053 46.63647476 30.22955231 45.83935577 30.2290802 45.01808167 C30.22607613 43.34317524 30.21824565 41.66827116 30.20581055 39.9934082 C30.18752842 37.44146743 30.18530142 34.88989017 30.18554688 32.33789062 C30.18063141 30.70312189 30.17480296 29.06835559 30.16796875 27.43359375 C30.16685593 26.67719101 30.1657431 25.92078827 30.16459656 25.14146423 C30.12783616 21.00599219 30.0545989 17.0115596 29 13 C26.04928156 11.06530151 26.04928156 11.06530151 23 10 C23 9.34 23 8.68 23 8 C26.47699463 7.19133328 29.52162444 6.92450687 33.08203125 7.12109375 C34.01337891 7.16943359 34.94472656 7.21777344 35.90429688 7.26757812 C36.86400391 7.32365234 37.82371094 7.37972656 38.8125 7.4375 C39.79154297 7.48970703 40.77058594 7.54191406 41.77929688 7.59570312 C44.1865609 7.72487339 46.59335638 7.85981643 49 8 C49 8.99 49 9.98 49 11 C48.195625 11.20625 47.39125 11.4125 46.5625 11.625 C45.2940625 12.305625 45.2940625 12.305625 44 13 C42.83971899 17.58587254 42.87828128 22.17394456 42.9375 26.875 C42.94201172 27.56335938 42.94652344 28.25171875 42.95117188 28.9609375 C42.96283664 30.64066335 42.98076729 32.32034375 43 34 C47.01414238 34 50.18572957 29.60690314 53 27 C53.71414063 26.34 54.42828125 25.68 55.1640625 25 C59.36869566 20.96859143 62.39288525 17.21422949 65 12 C63.35 11.34 61.7 10.68 60 10 C60 9.34 60 8.68 60 8 C72.94437533 7.13082046 85.81806104 6.86458959 98.7890625 6.90234375 C100.71389733 6.90421502 102.63873264 6.90563556 104.56356812 6.90663147 C109.56434507 6.91040096 114.56509173 6.92018177 119.56585693 6.93133545 C124.69494212 6.94167119 129.82403234 6.94615481 134.953125 6.95117188 C144.96876311 6.96181062 154.98437901 6.97881771 165 7 C165 11.62 165 16.24 165 21 C164.01 21 163.02 21 162 21 C161.54625 19.865625 161.0925 18.73125 160.625 17.5625 C159.42904194 13.95278308 159.42904194 13.95278308 157 13 C154.45384991 12.76827173 151.92603775 12.58105471 149.375 12.4375 C148.31539062 12.37272461 148.31539062 12.37272461 147.234375 12.30664062 C145.48981463 12.20055249 143.74493303 12.09977111 142 12 C142.01160156 12.73863281 142.02320313 13.47726562 142.03515625 14.23828125 C142.09729577 21.22453848 141.76544986 28.0562763 141 35 C149.35788312 35.41191988 149.35788312 35.41191988 156.8203125 32.59765625 C158.03888563 30.80111361 158.03888563 30.80111361 159 28 C159.66 28.33 160.32 28.66 161 29 C161 34.94 161 40.88 161 47 C160.01 47 159.02 47 158 47 C157.566875 45.7934375 157.566875 45.7934375 157.125 44.5625 C156.26737432 41.8673532 156.26737432 41.8673532 154 41 C151.95944995 40.92934383 149.91665743 40.91578024 147.875 40.9375 C145.93625 40.958125 143.9975 40.97875 142 41 C142 48.26 142 55.52 142 63 C145.774375 63.0928125 145.774375 63.0928125 149.625 63.1875 C150.79603271 63.22846802 150.79603271 63.22846802 151.99072266 63.27026367 C156.72172692 63.3261133 159.92458376 62.6448129 164 60 C165.63857855 58.24853463 165.63857855 58.24853463 166.75 56.3125 C167.921875 54.42578125 167.921875 54.42578125 169 53 C169.66 53 170.32 53 171 53 C170.91131893 54.37608552 170.80314061 55.75091742 170.6875 57.125 C170.62949219 57.89070313 170.57148437 58.65640625 170.51171875 59.4453125 C170 62 170 62 167 68 C127.4 68.495 127.4 68.495 87 69 C87.33 69.99 87.66 70.98 88 72 C87.31035156 72.23074219 86.62070313 72.46148437 85.91015625 72.69921875 C70.72938164 77.96771803 60.08370131 87.03471862 48.4375 97.8125 C47.73423584 98.45880371 47.03097168 99.10510742 46.30639648 99.77099609 C45.64712158 100.3892627 44.98784668 101.0075293 44.30859375 101.64453125 C43.71876709 102.19471924 43.12894043 102.74490723 42.52124023 103.31176758 C40.91171562 105.09797569 39.97023011 106.81018856 39 109 C39.72703125 109.84820313 40.4540625 110.69640625 41.203125 111.5703125 C41.92254272 112.40973389 41.92254272 112.40973389 42.65649414 113.26611328 C43.73353823 114.5225272 44.81085667 115.77870598 45.88842773 117.03466797 C48.62594525 120.22612576 51.35978723 123.42049978 54.08203125 126.625 C70.53310848 147.39730361 70.53310848 147.39730361 93 160 C92.67 161.32 92.34 162.64 92 164 C86.6541673 164.91934702 81.63541951 165.0681642 76.22265625 164.87890625 C75.41130722 164.85529526 74.59995819 164.83168427 73.76402283 164.80735779 C71.19664142 164.73136277 68.62961191 164.64706652 66.0625 164.5625 C64.31186563 164.50921489 62.56121458 164.45647505 60.81054688 164.40429688 C56.54014576 164.27583562 52.27003995 164.13993369 48 164 C47.67 162.68 47.34 161.36 47 160 C48.98 159.01 50.96 158.02 53 157 C51.29981031 153.07131308 48.70963346 149.88391629 46.0625 146.5625 C45.57885986 145.95140381 45.09521973 145.34030762 44.59692383 144.71069336 C39.53760686 138.35487021 34.29253831 132.16217725 29 126 C27.89184673 124.70710012 26.78377424 123.41413099 25.67578125 122.12109375 C24.78388018 121.08070686 23.89196267 120.04033408 23 119 C22.97519938 123.32331963 22.95709242 127.64660106 22.94506836 131.9699707 C22.94005331 133.43937909 22.93323967 134.90878252 22.92456055 136.37817383 C22.91237072 138.49561795 22.90674331 140.61299583 22.90234375 142.73046875 C22.89448853 144.63928833 22.89448853 144.63928833 22.88647461 146.58666992 C22.98550992 149.56433171 23.15317721 152.14781772 24 155 C26.27789958 156.68257823 26.27789958 156.68257823 29.0625 157.8125 C29.98160156 158.23144531 30.90070313 158.65039062 31.84765625 159.08203125 C32.55792969 159.38496094 33.26820312 159.68789063 34 160 C33.67 161.32 33.34 162.64 33 164 C27.21623818 164.19227275 21.43227738 164.37099427 15.64770508 164.53710938 C13.67949162 164.59554705 11.7113849 164.65770176 9.7434082 164.72363281 C6.91637605 164.81770094 4.08923091 164.89844184 1.26171875 164.9765625 C0.38037766 165.00875885 -0.50096344 165.0409552 -1.40901184 165.0741272 C-2.22963608 165.09429901 -3.05026031 165.11447083 -3.89575195 165.13525391 C-4.61745071 165.15746002 -5.33914948 165.17966614 -6.0827179 165.20254517 C-8 165 -8 165 -11 163 C-11 162.01 -11 161.02 -11 160 C-10.30132813 159.73445312 -9.60265625 159.46890625 -8.8828125 159.1953125 C-7.51769531 158.66550781 -7.51769531 158.66550781 -6.125 158.125 C-4.76761719 157.60292969 -4.76761719 157.60292969 -3.3828125 157.0703125 C-0.87782993 156.11469105 -0.87782993 156.11469105 1 154 C2.26972918 150.48932288 2.12694506 146.99140346 2.12939453 143.29125977 C2.13114685 142.62571075 2.13289917 141.96016174 2.13470459 141.27444458 C2.13909634 139.08007174 2.13619421 136.88577988 2.1328125 134.69140625 C2.13348639 133.16210413 2.13445712 131.63280212 2.13571167 130.10350037 C2.13718508 126.89996317 2.13504582 123.69645387 2.13037109 120.49291992 C2.12467885 116.39287623 2.12795187 112.29289807 2.13394356 108.19285679 C2.13756289 105.03496307 2.13640418 101.87708479 2.13381577 98.7191906 C2.13315005 97.20776296 2.13396249 95.6963339 2.13629532 94.18490791 C2.13884383 92.06927927 2.13495011 89.95375562 2.12939453 87.83813477 C2.12859894 86.63552505 2.12780334 85.43291534 2.12698364 84.19386292 C2.0133724 81.33633947 1.65886341 78.77604304 1 76 C-1.97 75.01 -4.94 74.02 -8 73 C-8 71.68 -8 70.36 -8 69 C-13.61 68.67 -19.22 68.34 -25 68 C-25 66.68 -25 65.36 -25 64 C-24.360625 63.71125 -23.72125 63.4225 -23.0625 63.125 C-20.84793921 62.17176549 -20.84793921 62.17176549 -20 60 C-19.85669004 57.73566572 -19.7734371 55.46742438 -19.71875 53.19921875 C-19.70034058 52.52582962 -19.68193115 51.85244049 -19.66296387 51.15864563 C-19.60418408 49.00168641 -19.55142356 46.84464636 -19.5 44.6875 C-19.43204682 41.85791706 -19.35827176 39.02856761 -19.28125 36.19921875 C-19.25095703 34.93940186 -19.22066406 33.67958496 -19.18945312 32.3815918 C-19.02647177 29.47250061 -18.66584386 26.82949944 -18 24 C-18.66 24 -19.32 24 -20 24 C-20.39747437 25.26360352 -20.39747437 25.26360352 -20.80297852 26.55273438 C-22.06406035 30.18448546 -23.55920024 33.66246167 -25.15234375 37.15625 C-25.60354332 38.1542865 -25.60354332 38.1542865 -26.06385803 39.17248535 C-26.69702426 40.57151246 -27.33160447 41.96990042 -27.9675293 43.36767578 C-28.93403265 45.49237759 -29.89609774 47.61904432 -30.85742188 49.74609375 C-31.4763031 51.11209672 -32.09543541 52.47798597 -32.71484375 53.84375 C-33.14155617 54.78619568 -33.14155617 54.78619568 -33.57688904 55.74768066 C-35.30437434 59.54110957 -37.11464772 63.28262428 -39 67 C-40.32 67 -41.64 67 -43 67 C-43.29495361 66.28457031 -43.58990723 65.56914062 -43.89379883 64.83203125 C-47.06396416 57.17858505 -50.34379826 49.57905728 -53.6875 42 C-54.17283203 40.89527344 -54.65816406 39.79054688 -55.15820312 38.65234375 C-57.95794486 32.2692997 -57.95794486 32.2692997 -61 26 C-61.81223141 33.67653123 -62.2098529 41.28172003 -62.25 49 C-62.270625 50.02222656 -62.29125 51.04445313 -62.3125 52.09765625 C-62.31765625 53.07605469 -62.3228125 54.05445313 -62.328125 55.0625 C-62.3374707 55.94035156 -62.34681641 56.81820312 -62.35644531 57.72265625 C-61.92437485 60.48317221 -61.16983477 61.30084238 -59 63 C-56.90010348 64.17574711 -56.90010348 64.17574711 -55 65 C-55 65.99 -55 66.98 -55 68 C-62.26 68 -69.52 68 -77 68 C-77.33 67.01 -77.66 66.02 -78 65 C-76.2421875 64.44661458 -74.484375 63.89322917 -72.7265625 63.33984375 C-69.25484788 60.64573037 -69.07492104 55.53758938 -68.49755859 51.39477539 C-68.38234863 50.14172607 -68.26713867 48.88867676 -68.1484375 47.59765625 C-68.08467926 46.91626083 -68.02092102 46.23486542 -67.95523071 45.53282166 C-67.82276731 44.102006 -67.69352469 42.67088878 -67.56738281 41.23950195 C-67.37574891 39.07097469 -67.17308388 36.90369174 -66.96875 34.73632812 C-65.10246388 23.58205965 -65.10246388 23.58205965 -67.1875 13.125 C-69.3728111 11.76860001 -71.57647695 10.8515081 -74 10 C-74 9.01 -74 8.02 -74 7 C-68.06 7 -62.12 7 -56 7 C-51.61624908 15.68779729 -47.29579957 24.39539637 -43.125 33.1875 C-42.7441626 33.98841064 -42.3633252 34.78932129 -41.97094727 35.61450195 C-40.19678326 39.37022046 -38.47911826 43.11536836 -37 47 C-34.45902066 44.71002715 -33.03268003 42.43978278 -31.51171875 39.38671875 C-31.05522949 38.4743042 -30.59874023 37.56188965 -30.12841797 36.62182617 C-29.65291504 35.65349854 -29.17741211 34.6851709 -28.6875 33.6875 C-28.19910645 32.70305908 -27.71071289 31.71861816 -27.20751953 30.7043457 C-23.91751801 24.01883081 -20.84652674 17.2812575 -18.0234375 10.38671875 C-17 8 -17 8 -16 7 C-13.13732433 6.92674832 -10.299281 6.90761795 -7.4375 6.9375 C-6.63119141 6.94201172 -5.82488281 6.94652344 -4.99414062 6.95117188 C-2.99606244 6.96299482 -0.99802217 6.98093086 1 7 C1 7.99 1 8.98 1 10 C-1.31 10.66 -3.62 11.32 -6 12 C-6.02483991 17.69254239 -6.04292602 23.38505276 -6.05493164 29.07763672 C-6.05994013 31.01156159 -6.06674882 32.94548271 -6.07543945 34.87939453 C-6.08765831 37.6696058 -6.09326329 40.45976672 -6.09765625 43.25 C-6.10281754 44.10553467 -6.10797882 44.96106934 -6.11329651 45.8425293 C-6.11376974 50.98166605 -5.97976242 55.94497356 -5 61 C-2.16426737 63.33775029 -2.16426737 63.33775029 1.125 62.75 C2.07375 62.5025 3.0225 62.255 4 62 C5.2400706 59.51985881 5.13356889 57.85314655 5.14526367 55.07885742 C5.15164352 54.05406784 5.15802338 53.02927826 5.16459656 51.97343445 C5.16570938 50.86200577 5.1668222 49.75057709 5.16796875 48.60546875 C5.17129715 47.46596268 5.17462555 46.3264566 5.17805481 45.15242004 C5.18312549 42.73727828 5.18546309 40.3221295 5.18530273 37.90698242 C5.18748478 34.21326099 5.20562703 30.51984025 5.22460938 26.82617188 C5.22754414 24.48177186 5.22952838 22.13737042 5.23046875 19.79296875 C5.24124702 18.13493477 5.24124702 18.13493477 5.25224304 16.44340515 C5.2476281 14.89203606 5.2476281 14.89203606 5.24291992 13.30932617 C5.24434494 12.40268723 5.24576996 11.49604828 5.24723816 10.56193542 C4.96854482 7.67405456 4.3496513 5.56809505 3 3 C2.01 2.67 1.02 2.34 0 2 C0 1.34 0 0.68 0 0 Z M59.50244141 25.44433594 C57.18214793 27.84682375 55.09310569 30.39818031 53 33 C57.73675727 39.06614691 62.63505527 44.91392741 67.8203125 50.6015625 C70.45378722 53.49932859 73.02525093 56.44757081 75.58984375 59.40625 C76.68415145 60.6430299 77.83228131 61.83228131 79 63 C81.60280568 62.67958603 81.60280568 62.67958603 84 62 C85.06821763 56.74828675 85.17731298 51.6665867 85.203125 46.33203125 C85.21167511 44.95708748 85.21167511 44.95708748 85.22039795 43.55436707 C85.22980816 41.62553042 85.23636603 39.69667799 85.24023438 37.76782227 C85.25000254 34.81173213 85.28108789 31.85631971 85.3125 28.90039062 C85.31902479 27.02344161 85.32427732 25.14648766 85.328125 23.26953125 C85.3404718 22.3851387 85.3528186 21.50074615 85.36553955 20.58955383 C85.36253845 19.76827499 85.35953735 18.94699615 85.35644531 18.10083008 C85.36009094 17.37946365 85.36373657 16.65809723 85.36749268 15.91487122 C84.88698201 13.4111042 84.02421984 12.51182134 82 11 C72.76417819 11 65.66561245 19.41527363 59.50244141 25.44433594 Z M121 10 C121 13.63 121 17.26 121 21 C120.01 21 119.02 21 118 21 C117.731875 19.88625 117.46375 18.7725 117.1875 17.625 C116.34190981 13.78159049 116.34190981 13.78159049 113 12 C110.63551158 11.68009863 108.25636502 11.46164093 105.875 11.3125 C103.98394531 11.18294922 103.98394531 11.18294922 102.0546875 11.05078125 C101.04664063 11.03402344 100.03859375 11.01726562 99 11 C96.38019661 13.61980339 96.98453316 19.45763662 96.8671875 22.9296875 C96.86976563 24.23164063 96.87234375 25.53359375 96.875 26.875 C96.87242187 28.19242187 96.86984375 29.50984375 96.8671875 30.8671875 C96.64044628 33.86595361 96.64044628 33.86595361 98 35 C102.38314097 35.48294022 106.62703764 35.6027893 111 35 C113.80095446 32.26269859 113.80095446 32.26269859 115 29 C115.66 28.67 116.32 28.34 117 28 C116.67 33.94 116.34 39.88 116 46 C114 45 114 45 112.82421875 42.45703125 C112.22222656 41.64621094 111.62023438 40.83539063 111 40 C107.57639262 39.39375602 107.57639262 39.39375602 103.8125 39.6875 C102.54019531 39.73261719 101.26789063 39.77773438 99.95703125 39.82421875 C98.98121094 39.88222656 98.00539063 39.94023437 97 40 C96.97105453 43.45831586 96.95322 46.91660072 96.9375 50.375 C96.92912109 51.35984375 96.92074219 52.3446875 96.91210938 53.359375 C96.90888672 54.30039062 96.90566406 55.24140625 96.90234375 56.2109375 C96.89710693 57.08024902 96.89187012 57.94956055 96.88647461 58.84521484 C96.85877649 61.05049994 96.85877649 61.05049994 98 63 C103.75023529 64.98899491 110.07667298 64.56753912 115.8125 62.875 C119.63422476 60.62692661 121.46360293 58.61244432 124 55 C124 54.34 124 53.68 124 53 C124.99 53 125.98 53 127 53 C126.34 56.63 125.68 60.26 125 64 C128.06327054 62.38233604 128.06327054 62.38233604 128.68040466 60.16156006 C129.01804214 57.87797328 129.12001045 55.72371962 129.11352539 53.41503906 C129.11344986 52.51440735 129.11337433 51.61377563 129.11329651 50.68585205 C129.10813522 49.72217712 129.10297394 48.7585022 129.09765625 47.765625 C129.0962413 46.77246277 129.09482635 45.77930054 129.09336853 44.75604248 C129.08777588 41.58733088 129.0752247 38.41869021 129.0625 35.25 C129.05748405 33.10026144 129.05292131 30.95052177 129.04882812 28.80078125 C129.03780886 23.53383001 129.021078 18.26692007 129 13 C125.12479873 10.98513431 125.12479873 10.98513431 121 10 Z M43 40 C42.85499356 43.60374463 42.76603237 47.20674242 42.6875 50.8125 C42.64560547 51.83666016 42.60371094 52.86082031 42.56054688 53.91601562 C42.51499082 56.69493527 42.52016227 59.2616257 43 62 C45.46897713 64.26759237 46.67196358 65 50 65 C50 65.99 50 66.98 50 68 C43.07 68 36.14 68 29 68 C29.99 68.66 30.98 69.32 32 70 C31.67 70.99 31.34 71.98 31 73 C28.67328135 74.01529541 26.3396553 75.01488198 24 76 C21.50663789 79.74004317 21.74518772 82.62561609 21.8046875 86.94921875 C21.8075174 87.72183548 21.81034729 88.49445221 21.81326294 89.29048157 C21.82445122 91.75631243 21.84955297 94.22177906 21.875 96.6875 C21.88503157 98.36002079 21.89415711 100.03254728 21.90234375 101.70507812 C21.92438608 105.80352559 21.95890637 109.90170106 22 114 C35.12721678 106.28816731 49.74930048 91.91197085 58 79 C58 78.01 58 77.02 58 76 C55.36 74.68 52.72 73.36 50 72 C50.33 71.34 50.66 70.68 51 70 C60.24 69.67 69.48 69.34 79 69 C79 68.67 79 68.34 79 68 C72.4 67.67 65.8 67.34 59 67 C60 65 60 65 63 63 C57.0193587 55.03413539 51.02653106 47.09055412 44 40 C43.67 40 43.34 40 43 40 Z M11 68 C11 68.33 11 68.66 11 69 C12.65 69 14.3 69 16 69 C16 68.67 16 68.34 16 68 C14.35 68 12.7 68 11 68 Z " fill="#EEF4F7" transform="translate(1549,426)"/>
<path d="M0 0 C0.31036394 7.10216047 0.61272996 14.20462844 0.90942383 21.30737305 C1.01140245 23.72574658 1.11524103 26.1440424 1.22094727 28.56225586 C1.37219532 32.02959965 1.51684521 35.49716401 1.66015625 38.96484375 C1.70906509 40.05337143 1.75797394 41.14189911 1.80836487 42.26341248 C1.8484819 43.26437454 1.88859894 44.26533661 1.92993164 45.29663086 C1.98655724 46.62566689 1.98655724 46.62566689 2.04432678 47.98155212 C2 50 2 50 1 51 C-0.49738124 51.0979057 -1.99942892 51.12974864 -3.5 51.125 C-4.3146875 51.12757813 -5.129375 51.13015625 -5.96875 51.1328125 C-8 51 -8 51 -9 50 C-9.31316505 48.2797082 -9.62105051 46.5582566 -9.8996582 44.83203125 C-12.19712571 30.76864827 -16.83876528 18.40412988 -28.23046875 9.24609375 C-38.11989206 2.28201861 -51.97861712 1.87171757 -63.5546875 3.5 C-73.76798352 5.43283882 -81.8840041 8.43572608 -88.4921875 16.734375 C-95.23781034 26.87028496 -95.45542473 39.14716857 -93.52734375 50.875 C-92.88261434 53.09873736 -92.10167837 54.96678664 -91 57 C-90.48373047 57.98613281 -90.48373047 57.98613281 -89.95703125 58.9921875 C-82.35136088 71.02084772 -66.30969851 76.32545894 -53.625 81.125 C-50.65666745 82.26781452 -47.69138158 83.4184173 -44.7265625 84.5703125 C-44.00237122 84.85097565 -43.27817993 85.13163879 -42.53204346 85.42080688 C-37.42768672 87.41065417 -32.36612589 89.48564633 -27.3359375 91.65625 C-26.69951324 91.92688263 -26.06308899 92.19751526 -25.40737915 92.47634888 C-9.33989619 99.50901475 1.57855356 110.81297435 8 127 C12.33018216 142.6656368 10.48713256 159.63382687 3 174 C-6.42160236 189.55181525 -20.26071598 196.87008541 -37.45703125 201.23828125 C-59.44519176 205.96561455 -98.0851222 205.82909301 -118 193 C-118.59701538 190.99635315 -118.59701538 190.99635315 -118.72802734 188.54907227 C-118.78335632 187.64996124 -118.8386853 186.75085022 -118.89569092 185.82449341 C-118.93011292 184.89241058 -118.96453491 183.96032776 -119 183 C-119.03941711 182.13341766 -119.07883423 181.26683533 -119.1194458 180.37399292 C-119.22489113 177.65433194 -119.29345822 174.93591365 -119.3515625 172.21484375 C-119.37471527 171.23254288 -119.39786804 170.250242 -119.42172241 169.23817444 C-119.46896655 167.18364775 -119.51424294 165.12907493 -119.55761719 163.07446289 C-119.62549006 159.91468581 -119.7030497 156.75523963 -119.78125 153.59570312 C-119.82610171 151.59376293 -119.87039317 149.59181009 -119.9140625 147.58984375 C-119.93796051 146.64205551 -119.96185852 145.69426727 -119.98648071 144.71775818 C-120.0033493 143.84917679 -120.0202179 142.9805954 -120.03759766 142.08569336 C-120.05456696 141.31865585 -120.07153625 140.55161835 -120.08901978 139.76133728 C-120 138 -120 138 -119 137 C-117.48071962 136.92820036 -115.95832518 136.91607993 -114.4375 136.9375 C-113.61121094 136.94652344 -112.78492188 136.95554687 -111.93359375 136.96484375 C-111.29550781 136.97644531 -110.65742187 136.98804688 -110 137 C-109.85304688 137.82177734 -109.85304688 137.82177734 -109.703125 138.66015625 C-106.36479851 156.35904241 -102.21198586 173.24463835 -86.984375 184.48828125 C-74.417077 192.37775166 -57.31517421 192.67635049 -43.125 189.875 C-33.65097895 187.35406618 -25.26483073 182.46283136 -20 174 C-14.87497333 163.08080372 -13.82120032 149.4607755 -17.625 137.9375 C-24.1055746 123.11514771 -36.68174344 117.77852165 -51 112 C-54.56635571 110.62590127 -58.1446395 109.29046232 -61.73071289 107.96875 C-105.20871523 91.93720147 -105.20871523 91.93720147 -115.2421875 70.32421875 C-121.06796635 54.83568256 -119.50755985 35.79252215 -112.875 20.875 C-105.8002362 7.67865914 -93.98331822 -1.30449462 -80 -6 C-79.04480469 -6.32097656 -78.08960938 -6.64195312 -77.10546875 -6.97265625 C-54.51628428 -13.08168098 -21.34475719 -10.67237859 0 0 Z " fill="#FAFBFB" transform="translate(731,137)"/>
<path d="M0 0 C1.58941665 -0.00067477 3.17883321 -0.00164624 4.76824951 -0.00289917 C8.08313998 -0.00436627 11.39800333 -0.00225235 14.71289062 0.00244141 C18.95515711 0.00815682 23.19736057 0.004842 27.43962479 -0.00113106 C30.71503168 -0.00474748 33.99042365 -0.00359342 37.26583099 -0.00100327 C38.83028928 -0.00033796 40.39474894 -0.00114853 41.95920563 -0.00348282 C44.14373866 -0.00602917 46.32816984 -0.00214168 48.51269531 0.00341797 C49.75351868 0.00421356 50.99434204 0.00500916 52.27276611 0.00582886 C55.546875 0.1328125 55.546875 0.1328125 60.546875 1.1328125 C60.546875 4.7628125 60.546875 8.3928125 60.546875 12.1328125 C50.976875 12.1328125 41.406875 12.1328125 31.546875 12.1328125 C32.990625 16.0103125 34.434375 19.8878125 35.921875 23.8828125 C41.19956191 38.19088053 46.2030082 52.59003355 51.171875 67.0078125 C58.93631796 89.53721971 66.83845608 112.0148468 74.82321167 134.46704102 C77.74510983 142.68402993 80.6488256 150.90738636 83.546875 159.1328125 C87.20069463 150.53638596 90.5988556 141.86210102 93.87890625 133.1171875 C94.38937222 131.76096642 94.90001792 130.40481297 95.41082764 129.04872131 C96.77918944 125.41437069 98.14491154 121.77903343 99.51012039 118.14349747 C100.65080026 115.10704904 101.79317885 112.07124101 102.93559933 109.03544712 C109.15768107 92.50120714 115.36322052 75.96076971 121.5625 59.41796875 C122.12395623 57.91989095 122.68541354 56.42181356 123.24687195 54.92373657 C125.6587956 48.48780139 128.07002213 42.05160925 130.47775841 35.61410618 C131.2235135 33.62056504 131.96972714 31.62719625 132.71612549 29.63389587 C133.62444792 27.20792978 134.53192468 24.78164681 135.43841553 22.35499573 C135.83586975 21.29401169 136.23332397 20.23302765 136.64282227 19.13989258 C136.98853775 18.21549881 137.33425323 17.29110504 137.69044495 16.33869934 C138.546875 14.1328125 138.546875 14.1328125 139.546875 12.1328125 C138.73420166 12.13804932 137.92152832 12.14328613 137.08422852 12.14868164 C133.42595178 12.16938244 129.76768733 12.18245053 126.109375 12.1953125 C124.82998047 12.20369141 123.55058594 12.21207031 122.23242188 12.22070312 C120.41000977 12.22553711 120.41000977 12.22553711 118.55078125 12.23046875 C117.42486572 12.23570557 116.2989502 12.24094238 115.13891602 12.24633789 C112.546875 12.1328125 112.546875 12.1328125 111.546875 11.1328125 C111.47481989 9.44672284 111.46301432 7.75780591 111.484375 6.0703125 C111.49339844 5.15121094 111.50242187 4.23210937 111.51171875 3.28515625 C111.52912109 2.21974609 111.52912109 2.21974609 111.546875 1.1328125 C114.87683276 0.02282658 117.25716568 0.04910448 120.76245117 0.11108398 C122.0435527 0.13118027 123.32465424 0.15127655 124.64457703 0.17198181 C126.04300145 0.19917821 127.44142364 0.22648906 128.83984375 0.25390625 C130.27044418 0.27821217 131.70105254 0.3020555 133.13166809 0.32545471 C136.89481648 0.38824872 140.65782429 0.45732855 144.4208374 0.52770996 C148.261613 0.59843576 152.10248818 0.6632273 155.94335938 0.72851562 C163.47797472 0.85746758 171.01245144 0.99305906 178.546875 1.1328125 C178.546875 4.7628125 178.546875 8.3928125 178.546875 12.1328125 C166.171875 12.6278125 166.171875 12.6278125 153.546875 13.1328125 C152.85352051 15.00195312 152.16016602 16.87109375 151.44580078 18.796875 C139.67080537 50.53729746 127.89501604 82.27708993 115.98730469 113.96801758 C112.14528917 124.19476897 108.31545582 134.42591161 104.50390625 144.6640625 C104.07858109 145.80651932 103.65325592 146.94897614 103.21504211 148.12605286 C101.17131076 153.61695222 99.12894669 159.10835673 97.08813477 164.6003418 C93.44057443 174.41047581 89.77393003 184.212878 86.0546875 193.99609375 C85.71565399 194.8893486 85.37662048 195.78260345 85.02731323 196.70292664 C84.71553131 197.52066055 84.40374939 198.33839447 84.08251953 199.1809082 C83.80908722 199.89865921 83.53565491 200.61641022 83.25393677 201.35591125 C82.546875 203.1328125 82.546875 203.1328125 81.546875 205.1328125 C77.586875 205.1328125 73.626875 205.1328125 69.546875 205.1328125 C65.05766965 193.41504667 60.88869999 181.5998771 56.80334473 169.7359314 C50.71702874 152.06792671 44.55428811 134.4284079 38.296875 116.8203125 C33.51806574 103.37289306 28.76291104 89.91760856 24.0546875 76.4453125 C23.70361938 75.44095122 23.70361938 75.44095122 23.34545898 74.41629982 C21.25388001 68.43218686 19.16297667 62.44783916 17.07702637 56.46176147 C12.02631192 41.96932101 6.90473462 27.51481779 1.546875 13.1328125 C-7.363125 12.8028125 -16.273125 12.4728125 -25.453125 12.1328125 C-25.453125 8.5028125 -25.453125 4.8728125 -25.453125 1.1328125 C-16.98079633 -0.06713616 -8.53741269 -0.01281498 0 0 Z " fill="#F9F9F9" transform="translate(1148.453125,131.8671875)"/>
<path d="M0 0 C1.19822872 2.39645744 1.15627315 3.95662027 1.20532227 6.63330078 C1.2352401 8.07456833 1.2352401 8.07456833 1.26576233 9.54495239 C1.28247482 10.58457123 1.29918732 11.62419006 1.31640625 12.6953125 C1.33718735 13.75789276 1.35796844 14.82047302 1.37937927 15.91525269 C1.44490261 19.31843438 1.50377273 22.72169489 1.5625 26.125 C1.60568257 28.42839366 1.64929677 30.73177926 1.69335938 33.03515625 C1.80058682 38.69002021 1.90234802 44.34496303 2 50 C2.5458223 49.51276962 3.09164459 49.02553925 3.65400696 48.52354431 C4.73079964 47.57010887 4.73079964 47.57010887 5.8293457 46.59741211 C6.540168 45.96580673 7.2509903 45.33420135 7.98335266 44.68345642 C14.52531487 39.22235865 22.73882727 38.36923822 30.98828125 38.69140625 C37.57928295 39.36674884 41.34877393 40.95922169 45.875 45.875 C52.01170787 53.51799072 52.12984496 61.43975469 52.140625 70.88671875 C52.1589342 72.81316304 52.17850273 74.73959571 52.19921875 76.66601562 C52.22830342 79.68811028 52.25000352 82.70944513 52.25048828 85.73168945 C52.2538097 88.65904367 52.2882525 91.58466439 52.328125 94.51171875 C52.3210553 95.41798508 52.3139856 96.3242514 52.30670166 97.25798035 C52.35262366 99.61151097 52.43305612 101.71524858 53 104 C55.79198823 106.38740582 58.41175869 107.33551087 62 108 C62 109.98 62 111.96 62 114 C47.48 114 32.96 114 18 114 C18 112.02 18 110.04 18 108 C19.134375 107.71125 20.26875 107.4225 21.4375 107.125 C22.613125 106.75375 23.78875 106.3825 25 106 C26.1343019 103.7313962 26.13783208 102.45635688 26.16113281 99.93676758 C26.17074036 99.09862015 26.1803479 98.26047272 26.19024658 97.39692688 C26.19449646 96.48863632 26.19874634 95.58034576 26.203125 94.64453125 C26.21167511 93.24203377 26.21167511 93.24203377 26.22039795 91.811203 C26.22985656 89.82816705 26.23638534 87.84511532 26.24023438 85.86206055 C26.24990553 82.84200139 26.28090646 79.82263272 26.3125 76.80273438 C26.31903356 74.87500404 26.32428264 72.94726883 26.328125 71.01953125 C26.3404718 70.12136185 26.3528186 69.22319244 26.36553955 68.29780579 C26.34611354 62.77048556 25.65859204 58.88144807 23 54 C19.46779729 51.57791814 16.17077503 51.79421205 11.99609375 52.44921875 C7.92168262 53.57346918 4.93597518 56.06402482 2 59 C1.7081982 61.10150163 1.7081982 61.10150163 1.77294922 63.54150391 C1.77317581 64.95274033 1.77317581 64.95274033 1.77340698 66.39248657 C1.78372955 67.41023163 1.79405212 68.42797668 1.8046875 69.4765625 C1.80893234 71.03713882 1.80893234 71.03713882 1.81326294 72.62924194 C1.82448296 75.96127694 1.84959085 79.29304586 1.875 82.625 C1.88502744 84.88020446 1.8941537 87.13541312 1.90234375 89.390625 C1.92442822 94.92717454 1.95792361 100.46356827 2 106 C4.64 106.66 7.28 107.32 10 108 C10 109.98 10 111.96 10 114 C-4.85 114 -19.7 114 -35 114 C-35 112.02 -35 110.04 -35 108 C-30.05 107.01 -30.05 107.01 -25 106 C-24.95366264 94.35182793 -24.91812362 82.70367778 -24.89637566 71.05543232 C-24.88593782 65.64670367 -24.87177851 60.23803807 -24.84912109 54.8293457 C-24.82739288 49.6098131 -24.81543137 44.39034117 -24.81024551 39.17076683 C-24.80654973 37.17926262 -24.79933285 35.18776173 -24.78853989 33.19628334 C-24.77402536 30.4072311 -24.77202206 27.61842963 -24.77294922 24.8293457 C-24.76575867 24.00575562 -24.75856812 23.18216553 -24.75115967 22.33361816 C-24.76620316 18.15243725 -24.89689682 14.74328385 -27 11 C-29.37877435 9.75607124 -29.37877435 9.75607124 -32.125 9.1875 C-33.49011719 8.83751953 -33.49011719 8.83751953 -34.8828125 8.48046875 C-35.93082031 8.24263672 -35.93082031 8.24263672 -37 8 C-37 6.02 -37 4.04 -37 2 C-33.01669261 1.71153244 -29.03313331 1.42685352 -25.04931641 1.14550781 C-23.03664439 1.00260187 -21.02417891 0.85679651 -19.01171875 0.7109375 C-12.65925596 0.26403057 -6.36855229 -0.12997045 0 0 Z " fill="#FAFAFA" transform="translate(385,8)"/>
<path d="M0 0 C33.33 0 66.66 0 101 0 C101 9.57 101 19.14 101 29 C100 30 100 30 97.4375 30.0625 C96.633125 30.041875 95.82875 30.02125 95 30 C94.46890625 28.97519531 93.9378125 27.95039062 93.390625 26.89453125 C92.6773651 25.53370644 91.96380762 24.17303758 91.25 22.8125 C90.90195312 22.13896484 90.55390625 21.46542969 90.1953125 20.77148438 C86.13333357 12.85358934 86.13333357 12.85358934 79 8 C76.22605167 7.7047806 73.5299489 7.49287769 70.75 7.375 C70.00492187 7.33632813 69.25984375 7.29765625 68.4921875 7.2578125 C66.6618476 7.16394892 64.83095857 7.08090282 63 7 C63.08439588 17.60524062 63.17927648 28.21033072 63.28752708 38.81535625 C63.3374636 43.73974988 63.38379396 48.66412234 63.421875 53.58862305 C63.45876109 58.34142207 63.50513024 63.09404278 63.55806351 67.84668922 C63.57658976 69.65952233 63.59170425 71.47239364 63.60334396 73.28528404 C63.62023665 75.82538468 63.64927894 78.36507856 63.68115234 80.9050293 C63.68331253 81.65381348 63.68547272 82.40259766 63.68769836 83.17407227 C63.75207389 87.19244657 64.08038002 90.43240835 66 94 C69.94228865 96.20304366 74.62735069 96.9624222 79 98 C79 99.98 79 101.96 79 104 C59.86 104 40.72 104 21 104 C21 102.02 21 100.04 21 98 C21.91523438 97.81824219 22.83046875 97.63648437 23.7734375 97.44921875 C24.96195312 97.19785156 26.15046875 96.94648437 27.375 96.6875 C28.55835938 96.44386719 29.74171875 96.20023437 30.9609375 95.94921875 C34.27925004 95.26236391 34.27925004 95.26236391 36 92 C36.21318193 89.25348085 36.31127548 86.60496463 36.31884766 83.85668945 C36.33391609 82.61245209 36.33391609 82.61245209 36.34928894 81.34307861 C36.38019323 78.59981991 36.39717614 75.85665912 36.4140625 73.11328125 C36.43276833 71.21183933 36.45234129 69.31040575 36.4727478 67.40898132 C36.52413687 62.40311602 36.56372632 57.39722378 36.60089111 52.39123535 C36.64088832 47.28354188 36.69200017 42.17596109 36.7421875 37.06835938 C36.839027 27.045652 36.92340609 17.0228811 37 7 C34.45494659 7.03324892 31.91833268 7.10064363 29.375 7.1875 C28.30572266 7.19620117 28.30572266 7.19620117 27.21484375 7.20507812 C21.51974882 7.44019672 19.00601625 8.94700448 15 13 C12.94436494 15.89700038 12.94436494 15.89700038 11.3125 19 C10.75175781 20.010625 10.19101562 21.02125 9.61328125 22.0625 C8.56312723 23.97464484 7.55754447 25.91217724 6.60546875 27.875 C6.07566406 28.57625 5.54585937 29.2775 5 30 C3.35 30 1.7 30 0 30 C0 20.1 0 10.2 0 0 Z " fill="#FCFCFC" transform="translate(246,18)"/>
<path d="M0 0 C7.05549333 4.98639602 10.9765623 10.60972943 13.45703125 18.953125 C13.94565178 23.15526152 13.76953125 27.41017569 13.76953125 31.640625 C-2.73046875 31.640625 -19.23046875 31.640625 -36.23046875 31.640625 C-34.08368086 47.31573201 -34.08368086 47.31573201 -25.10546875 58.078125 C-18.68123014 61.56955903 -10.94545839 61.87028177 -3.87890625 60.02734375 C1.69178903 57.50832417 5.70119258 53.09848546 9.76953125 48.640625 C11.41953125 49.630625 13.06953125 50.620625 14.76953125 51.640625 C13.99308849 58.23459407 9.74318321 61.62072733 4.76953125 65.640625 C-7.68843313 73.13097608 -20.72874877 74.73879473 -35.00390625 71.88671875 C-42.8268216 69.3743215 -48.63216715 65.68089778 -54.23046875 59.640625 C-55.25140625 58.58875 -55.25140625 58.58875 -56.29296875 57.515625 C-62.85800613 47.77395664 -63.45800928 37.0323086 -62.23046875 25.640625 C-60.29365378 16.00239192 -54.96424847 8.04102641 -46.98046875 2.328125 C-45.42075413 1.39177458 -43.83628561 0.49550161 -42.23046875 -0.359375 C-41.45445312 -0.77316406 -40.6784375 -1.18695313 -39.87890625 -1.61328125 C-28.29451982 -6.75990494 -10.94170912 -6.66850223 0 0 Z M-32.23046875 6.640625 C-35.84162798 12.8667616 -35.52210422 16.8486152 -36.23046875 24.640625 C-28.64046875 24.640625 -21.05046875 24.640625 -13.23046875 24.640625 C-12.84316513 14.24489533 -12.84316513 14.24489533 -16.23046875 4.640625 C-18.75721976 2.51283468 -20.46312078 1.79802971 -23.66796875 1.140625 C-27.42498249 1.87370085 -29.76109737 3.84390179 -32.23046875 6.640625 Z " fill="#FAFAFA" transform="translate(517.23046875,51.359375)"/>
<path d="M0 0 C1.21042969 -0.01998047 2.42085937 -0.03996094 3.66796875 -0.06054688 C12.13211873 -0.05589113 15.76788395 0.80625195 21.8125 6.6875 C24.06673986 10.36107607 24.20987885 13.15821301 24.5 17.4375 C19.22 17.4375 13.94 17.4375 8.5 17.4375 C8.5 19.4175 8.5 21.3975 8.5 23.4375 C13.78 23.4375 19.06 23.4375 24.5 23.4375 C24.5 27.0675 24.5 30.6975 24.5 34.4375 C19.22 34.4375 13.94 34.4375 8.5 34.4375 C8.5 36.4175 8.5 38.3975 8.5 40.4375 C13.78 40.4375 19.06 40.4375 24.5 40.4375 C24.5 44.0675 24.5 47.6975 24.5 51.4375 C19.55 51.7675 14.6 52.0975 9.5 52.4375 C9.17 54.0875 8.84 55.7375 8.5 57.4375 C10.10681641 57.42009766 10.10681641 57.42009766 11.74609375 57.40234375 C13.14322743 57.39296701 14.54036299 57.38386669 15.9375 57.375 C16.64455078 57.36662109 17.35160156 57.35824219 18.08007812 57.34960938 C19.88693559 57.34096412 21.69387603 57.38529989 23.5 57.4375 C23.83 57.7675 24.16 58.0975 24.5 58.4375 C24.39575582 64.4836626 23.20961551 67.5245574 19.16796875 71.9921875 C13.63667147 76.78511489 7.1301801 75.80518036 0.1875 75.8125 C-1.02357422 75.83699219 -2.23464844 75.86148438 -3.48242188 75.88671875 C-10.35639834 75.90929339 -15.00188988 75.73001894 -20.5 71.4375 C-22.05859375 69.76171875 -22.05859375 69.76171875 -22.9375 68.125 C-23.39962891 67.32642578 -23.39962891 67.32642578 -23.87109375 66.51171875 C-24.5 64.4375 -24.5 64.4375 -24.5 57.4375 C-19.55 57.1075 -14.6 56.7775 -9.5 56.4375 C-9.5 55.1175 -9.5 53.7975 -9.5 52.4375 C-14.45 52.1075 -19.4 51.7775 -24.5 51.4375 C-24.5 47.8075 -24.5 44.1775 -24.5 40.4375 C-19.55 40.1075 -14.6 39.7775 -9.5 39.4375 C-9.5 38.1175 -9.5 36.7975 -9.5 35.4375 C-14.45 35.1075 -19.4 34.7775 -24.5 34.4375 C-24.5 30.8075 -24.5 27.1775 -24.5 23.4375 C-19.55 23.1075 -14.6 22.7775 -9.5 22.4375 C-9.5 21.1175 -9.5 19.7975 -9.5 18.4375 C-14.45 18.1075 -19.4 17.7775 -24.5 17.4375 C-23.90588988 7.48615557 -23.90588988 7.48615557 -19.5 3.4375 C-13.01670717 -0.34537943 -7.32967725 -0.04293208 0 0 Z " fill="#F7F9FA" transform="translate(1561.5,346.5625)"/>
<path d="M0 0 C8.25 0 16.5 0 25 0 C23.35 2.31 21.7 4.62 20 7 C18.83776505 10.69170136 18.87128607 14.2718554 18.8671875 18.12890625 C18.86404541 19.91590942 18.86404541 19.91590942 18.86083984 21.73901367 C18.8655127 23.00076416 18.87018555 24.26251465 18.875 25.5625 C18.87838379 26.85196533 18.88176758 28.14143066 18.88525391 29.4699707 C18.92664319 37.2140978 19.03982481 44.95017661 19.375 52.6875 C19.42116455 53.92318726 19.42116455 53.92318726 19.46826172 55.18383789 C19.55425125 59.55828565 19.55425125 59.55828565 22 63 C25.08347826 63.16681109 25.08347826 63.16681109 28 63 C29.77570898 57.6587976 30.28388471 53.04152131 30.23046875 47.43359375 C30.23001053 46.63647476 30.22955231 45.83935577 30.2290802 45.01808167 C30.22607613 43.34317524 30.21824565 41.66827116 30.20581055 39.9934082 C30.18752842 37.44146743 30.18530142 34.88989017 30.18554688 32.33789062 C30.18063141 30.70312189 30.17480296 29.06835559 30.16796875 27.43359375 C30.16685593 26.67719101 30.1657431 25.92078827 30.16459656 25.14146423 C30.12783616 21.00599219 30.0545989 17.0115596 29 13 C26.04928156 11.06530151 26.04928156 11.06530151 23 10 C23 9.34 23 8.68 23 8 C26.47699463 7.19133328 29.52162444 6.92450687 33.08203125 7.12109375 C34.01337891 7.16943359 34.94472656 7.21777344 35.90429688 7.26757812 C36.86400391 7.32365234 37.82371094 7.37972656 38.8125 7.4375 C39.79154297 7.48970703 40.77058594 7.54191406 41.77929688 7.59570312 C44.1865609 7.72487339 46.59335638 7.85981643 49 8 C49 8.99 49 9.98 49 11 C48.195625 11.20625 47.39125 11.4125 46.5625 11.625 C45.2940625 12.305625 45.2940625 12.305625 44 13 C41.99846626 20.72421809 42.69891775 29.30559089 42.64990234 37.23217773 C42.63325452 39.20788275 42.60585039 41.18352545 42.56787109 43.15893555 C42.51330709 46.01642872 42.49127216 48.87252611 42.4765625 51.73046875 C42.45389313 52.6148613 42.43122375 53.49925385 42.40786743 54.41044617 C42.41586555 56.71521806 42.4607604 58.75902296 43 61 C45.2724859 63.12793337 45.2724859 63.12793337 48 64 C48.99 64.495 48.99 64.495 50 65 C50 65.99 50 66.98 50 68 C32.96791869 68.12885071 16.01091667 67.86995423 -1 67 C-0.36173279 66.44882004 -0.36173279 66.44882004 0.28942871 65.88650513 C3.92791001 62.30408948 5.42192738 59.65510738 5.71289062 54.51123047 C5.72537882 52.37983578 5.70471908 50.24806761 5.65625 48.1171875 C5.65250366 46.98475616 5.64875732 45.85232483 5.64489746 44.68557739 C5.63149377 42.30019285 5.60373847 39.91485088 5.5625 37.52978516 C5.50008752 33.88011786 5.48054211 30.23217988 5.46875 26.58203125 C5.45041187 24.26039562 5.42966092 21.93877752 5.40625 19.6171875 C5.39775024 18.52751678 5.38925049 17.43784607 5.38049316 16.31515503 C5.36127808 15.29704742 5.34206299 14.27893982 5.32226562 13.22998047 C5.30860962 12.33842255 5.29495361 11.44686462 5.28088379 10.52828979 C4.96384988 7.67460573 4.32919721 5.54556625 3 3 C2.01 2.67 1.02 2.34 0 2 C0 1.34 0 0.68 0 0 Z " fill="#F3F7FA" transform="translate(1549,426)"/>
<path d="M0 0 C0 0.66 0 1.32 0 2 C-0.99 2 -1.98 2 -3 2 C-3 2.66 -3 3.32 -3 4 C-2.13834229 3.99214478 -2.13834229 3.99214478 -1.25927734 3.98413086 C1.36880377 3.96321424 3.99686729 3.95029341 6.625 3.9375 C7.98044922 3.92493164 7.98044922 3.92493164 9.36328125 3.91210938 C14.02904289 3.89508105 18.41013285 4.03170577 23 5 C23 5.33 23 5.66 23 6 C14.09 6 5.18 6 -4 6 C-4.33 4.68 -4.66 3.36 -5 2 C-2 0 -2 0 0 0 Z " fill="#BED2DE" transform="translate(1601,584)"/>
<path d="M0 0 C1.65 0.66 3.3 1.32 5 2 C4.67 3.32 4.34 4.64 4 6 C-4.58 6 -13.16 6 -22 6 C-22 5.67 -22 5.34 -22 5 C-14.74 4.67 -7.48 4.34 0 4 C0 2.68 0 1.36 0 0 Z " fill="#D0E2EC" transform="translate(1578,584)"/>
<path d="M0 0 C0.74886475 0.00523682 1.49772949 0.01047363 2.26928711 0.01586914 C3.07817383 0.0190918 3.88706055 0.02231445 4.72045898 0.02563477 C5.5705957 0.03401367 6.42073242 0.04239258 7.29663086 0.05102539 C8.15063477 0.05553711 9.00463867 0.06004883 9.88452148 0.06469727 C12.00108749 0.07652166 14.11761771 0.0944577 16.23413086 0.11352539 C16.23413086 0.44352539 16.23413086 0.77352539 16.23413086 1.11352539 C15.52385742 1.16250977 14.81358398 1.21149414 14.08178711 1.26196289 C12.70313477 1.37411133 12.70313477 1.37411133 11.29663086 1.48852539 C10.38010742 1.55813477 9.46358398 1.62774414 8.51928711 1.69946289 C7.38813477 1.90442383 7.38813477 1.90442383 6.23413086 2.11352539 C5.90413086 2.77352539 5.57413086 3.43352539 5.23413086 4.11352539 C2.35913086 4.30102539 2.35913086 4.30102539 -0.76586914 4.11352539 C-1.42586914 3.12352539 -2.08586914 2.13352539 -2.76586914 1.11352539 C-1.76586914 0.11352539 -1.76586914 0.11352539 0 0 Z " fill="#C5D7E9" transform="translate(1476.765869140625,432.886474609375)"/>
<path d="M0 0 C1.32 0 2.64 0 4 0 C2.125 5.75 2.125 5.75 1 8 C-0.64363134 8.72159424 -2.31050386 9.39351421 -4 10 C-2.8905928 6.51329166 -1.73662334 3.22515763 0 0 Z " fill="#DCE9EC" transform="translate(1525,450)"/>
<path d="M0 0 C8.25 0 16.5 0 25 0 C25 0.33 25 0.66 25 1 C18.07 1 11.14 1 4 1 C3.67 2.32 3.34 3.64 3 5 C3 4.34 3 3.68 3 3 C2.01 2.67 1.02 2.34 0 2 C0 1.34 0 0.68 0 0 Z " fill="#D6DFEE" transform="translate(1549,426)"/>
<path d="M0 0 C0.99 0.33 1.98 0.66 3 1 C-3.89715536 8.68490153 -3.89715536 8.68490153 -8.5 10 C-9.325 10 -10.15 10 -11 10 C-8.76684516 6.59150051 -6.50292196 5.01418013 -3 3 C-1.24850835 1.41754725 -1.24850835 1.41754725 0 0 Z " fill="#D6E3EB" transform="translate(1611,446)"/>
<path d="M0 0 C4.95 0 9.9 0 15 0 C10.87240189 2.06379905 8.48163155 2.29801346 4.0234375 2.4609375 C1.79769903 2.80712875 1.79769903 2.80712875 0.7265625 5.0390625 C0.48679687 5.68617188 0.24703125 6.33328125 0 7 C0 4.69 0 2.38 0 0 Z " fill="#C0CCD2" transform="translate(1537,404)"/>
<path d="M0 0 C0.99 0.33 1.98 0.66 3 1 C3 1.99 3 2.98 3 4 C-4.26 4 -11.52 4 -19 4 C-19 3.67 -19 3.34 -19 3 C-13.06 2.67 -7.12 2.34 -1 2 C-0.67 1.34 -0.34 0.68 0 0 Z " fill="#C9DAE3" transform="translate(1491,490)"/>
<path d="M0 0 C0.66 0 1.32 0 2 0 C1.67 2.97 1.34 5.94 1 9 C0.67 7.68 0.34 6.36 0 5 C-0.66 5 -1.32 5 -2 5 C-2.66 6.32 -3.32 7.64 -4 9 C-4.99 8.67 -5.98 8.34 -7 8 C-6.401875 7.4225 -5.80375 6.845 -5.1875 6.25 C-2.98376999 4.09233444 -2.98376999 4.09233444 -1.375 1.75 C-0.694375 0.88375 -0.694375 0.88375 0 0 Z " fill="#D0E1EC" transform="translate(1718,479)"/>
<path d="M0 0 C0.66 0 1.32 0 2 0 C2 0.66 2 1.32 2 2 C7.61 2 13.22 2 19 2 C19 2.33 19 2.66 19 3 C9.595 3.495 9.595 3.495 0 4 C0 2.68 0 1.36 0 0 Z " fill="#DDEEF4" transform="translate(1524,490)"/>
<path d="M0 0 C1.66611905 -0.042721 3.33382885 -0.04063832 5 0 C6 1 6 1 6.09765625 3.28515625 C6.08605469 4.20167969 6.07445312 5.11820312 6.0625 6.0625 C6.05347656 6.98160156 6.04445313 7.90070313 6.03515625 8.84765625 C6.02355469 9.55792969 6.01195312 10.26820313 6 11 C4.68 11.33 3.36 11.66 2 12 C2.66 8.7 3.32 5.4 4 2 C2.68 1.34 1.36 0.68 0 0 Z " fill="#BEC8CF" transform="translate(1128,324)"/>
<path d="M0 0 C0.33 0 0.66 0 1 0 C1 3.96 1 7.92 1 12 C0.01 12 -0.98 12 -2 12 C-2.33 10.68 -2.66 9.36 -3 8 C-2.34 7.67 -1.68 7.34 -1 7 C-0.59270772 4.67843403 -0.25561323 2.3431213 0 0 Z " fill="#CBD8E3" transform="translate(1665,460)"/>
<path d="M0 0 C0 1.32 0 2.64 0 4 C-1.98 3.34 -3.96 2.68 -6 2 C-6 1.34 -6 0.68 -6 0 C-3 -1 -3 -1 0 0 Z " fill="#CFDFE5" transform="translate(1578,434)"/>
</svg>
